<?xml version="1.0" encoding="iso-8859-1"?>
<!-- Generator: Adobe Illustrator 18.0.0, SVG Export Plug-In . SVG Version: 6.00 Build 0)  -->
<!DOCTYPE svg PUBLIC "-//W3C//DTD SVG 1.1//EN" "http://www.w3.org/Graphics/SVG/1.1/DTD/svg11.dtd">
<svg version="1.1" id="Capa_1" xmlns="http://www.w3.org/2000/svg" xmlns:xlink="http://www.w3.org/1999/xlink" x="0px" y="0px"
	 viewBox="0 0 449.989 449.989" style="enable-background:new 0 0 449.989 449.989;" xml:space="preserve">
<path d="M449.312,156.296c-1.155-2.22-3.559-3.487-6.052-3.186l-105.067,12.865c-1.358,0.167-2.734,0.251-4.092,0.251
	c-17.171,0-31.368-12.913-33.025-30.036l-5.002-51.688c-0.16-1.655-1-3.169-2.318-4.182c-1.32-1.012-3-1.431-4.64-1.159
	c-2.186,0.364-4.411,0.549-6.615,0.549c-15.963,0-30.394-9.468-36.764-24.121l-15.238-35.049c-0.953-2.191-3.114-3.608-5.503-3.608
	s-4.55,1.417-5.502,3.607l-15.239,35.049c-6.371,14.654-20.802,24.122-36.764,24.121c-2.204,0-4.43-0.185-6.615-0.549
	c-1.638-0.272-3.319,0.147-4.64,1.159c-1.318,1.012-2.158,2.527-2.318,4.182l-5.002,51.688
	c-1.658,17.123-15.855,30.036-33.026,30.036c-1.357,0-2.733-0.084-4.092-0.251L6.73,153.111c-2.487-0.303-4.896,0.965-6.052,3.186
	c-1.155,2.22-0.812,4.924,0.862,6.784l31.778,35.305c14.646,16.271,19.97,38.601,14.241,59.729c-0.44,1.625-0.178,3.362,0.725,4.785
	c0.902,1.422,2.361,2.399,4.021,2.693l38.846,6.876c9.494,1.68,17.199,8.067,20.612,17.084c3.412,9.017,1.866,18.905-4.137,26.451
	l-20.499,25.768c-1.265,1.589-1.639,3.711-0.995,5.637s2.219,3.396,4.185,3.906c10.821,2.806,21.961,4.228,33.108,4.228
	c36.57,0,70.745-14.801,95.57-40.982v112.494c0,3.313,2.687,6,6,6s6-2.687,6-6V314.563c24.828,26.183,59.002,40.982,95.569,40.98
	c11.15,0,22.29-1.423,33.108-4.228c1.966-0.51,3.541-1.98,4.185-3.906s0.27-4.048-0.995-5.637l-20.499-25.768
	c-6.003-7.545-7.549-17.433-4.136-26.451c3.412-9.017,11.118-15.404,20.612-17.084l38.845-6.876
	c1.659-0.294,3.117-1.271,4.021-2.693c0.902-1.423,1.165-3.159,0.725-4.785c-5.729-21.129-0.404-43.458,14.241-59.729l31.778-35.305
	C450.123,161.22,450.467,158.516,449.312,156.296z M339.651,177.887l79.084-9.684c-24.454,13.453-64.299,35.933-102.081,59.713
	c-6.233-18.471-3.57-42.098-1.589-53.861c5.791,2.678,12.24,4.171,19.035,4.171C335.943,178.227,337.811,178.112,339.651,177.887z
	 M307.692,169.75c-0.828,4.391-1.948,11.385-2.542,19.635c-1.232,17.105,0.313,31.516,4.571,42.926
	c-33.672,21.491-64.808,43.648-80.726,60.858v-55.231c19.707-7.865,38.293-25.441,53.903-51.035
	c6.493-10.645,11.248-20.614,14.313-27.719C300.099,163.273,303.646,166.839,307.692,169.75z M160.858,137.347l3.045-31.462
	c2.399,5.232,5.35,11.143,8.866,17.269c14.212,24.756,30.425,40.795,48.226,47.737v58.352c-36.195-16.48-57.556-64.65-63.275-79.103
	C159.34,146.146,160.422,141.855,160.858,137.347z M286.087,105.885l3.045,31.462c0.436,4.51,1.519,8.802,3.14,12.797
	c-5.711,14.455-27.042,62.61-63.276,79.1v-58.353c17.801-6.943,34.013-22.981,48.226-47.737
	C280.737,117.028,283.689,111.117,286.087,105.885z M234.731,60.376c8.276,19.036,27.026,31.336,47.769,31.336
	c0.305,0,0.611-0.014,0.916-0.02c-6.721,17.032-25.147,56.998-54.421,70.507V47.182L234.731,60.376z M167.492,91.712
	c20.739,0,39.49-12.301,47.766-31.336l5.737-13.194v115.017c-29.24-13.502-47.686-53.472-54.417-70.506
	c0.304,0.005,0.608,0.02,0.912,0.02C167.491,91.712,167.491,91.712,167.492,91.712z M152.779,159.184
	c3.065,7.105,7.82,17.074,14.312,27.719c15.61,25.595,34.197,43.17,53.904,51.036v55.232c-15.918-17.21-47.054-39.368-80.727-60.859
	c4.258-11.41,5.802-25.821,4.571-42.926c-0.594-8.25-1.713-15.244-2.541-19.635C146.344,166.839,149.89,163.273,152.779,159.184z
	 M115.889,178.227c6.795,0,13.244-1.493,19.035-4.171c1.981,11.763,4.644,35.39-1.589,53.861
	c-37.783-23.781-77.627-46.26-102.081-59.713l79.084,9.684C112.179,178.112,114.046,178.227,115.889,178.227z M42.238,190.357
	L29.874,176.62c24.321,13.453,62.34,35.012,98.4,57.646c-22.19,15.547-53.582,19.434-67.655,20.406
	C64.754,231.611,58.107,207.989,42.238,190.357z M122.985,285.306c-4.925-13.012-16.044-22.229-29.743-24.653l-6.467-1.145
	c20.111-4.311,36.493-11.243,48.766-20.648c32.284,20.556,62.098,41.598,77.886,57.936c-19.851,4.944-63.864,16.951-102.931,34.875
	l6.521-8.197C125.679,312.587,127.91,298.318,122.985,285.306z M123.425,343.543c-5.62,0-11.238-0.405-16.807-1.194
	c37.435-18.251,81.64-30.855,104.256-36.657C188.26,329.868,156.948,343.542,123.425,343.543z M326.564,343.543
	c-33.521,0.002-64.834-13.673-87.448-37.851c22.615,5.802,66.82,18.406,104.256,36.657
	C337.803,343.138,332.185,343.542,326.564,343.543z M356.748,260.653c-13.7,2.425-24.819,11.641-29.744,24.653
	s-2.693,27.281,5.969,38.169l6.521,8.197c-39.067-17.924-83.08-29.931-102.931-34.875c15.787-16.337,45.601-37.379,77.886-57.936
	c12.273,9.405,28.655,16.336,48.766,20.647L356.748,260.653z M407.751,190.358c-15.87,17.633-22.517,41.256-18.379,64.32
	c-14.066-0.964-45.441-4.837-67.656-20.41c36.06-22.633,74.079-44.193,98.4-57.646L407.751,190.358z"/>
<g>
</g>
<g>
</g>
<g>
</g>
<g>
</g>
<g>
</g>
<g>
</g>
<g>
</g>
<g>
</g>
<g>
</g>
<g>
</g>
<g>
</g>
<g>
</g>
<g>
</g>
<g>
</g>
<g>
</g>
</svg>
